# xmcd
#
# Track frame offsets:
#       150
#       57178
#       76985
#       118927
#       133007
#       145855
#       160044
#       214018
#       240560
#       302409
#       329647
#
# Disc length: 4638 seconds
#
# Revision: 1
# Processed by: cddbd v1.5.2PL0 Copyright (c) Steve Scherf et al.
# Submitted via: FreeDbEdit v0.1
#
DISCID=96121c0b
DTITLE=The Temptations - Psychedelic Soul (edit) [CD2]
DYEAR=1900
DGENRE=Soul
TTITLE0=Smiling Faces Some Times
TTITLE1=Ungenza Za Ulimengo
TTITLE2=Love Can Be Anything
TTITLE3=Take a Look Around
TTITLE4=Superstar
TTITLE5=Funky Music Sho Nuff Turns Me On
TTITLE6=Papa Was a Rolling Stone
TTITLE7=Plastic Man
TTITLE8=Masterpiece
TTITLE9=Ain't No Justice
TTITLE10=1990
EXTD=
EXTT0=
EXTT1=
EXTT2=
EXTT3=
EXTT4=
EXTT5=
EXTT6=
EXTT7=
EXTT8=
EXTT9=
EXTT10=
PLAYORDER=
